<?xml version="1.0" encoding="utf-8"?>
<!-- Generator: Adobe Illustrator 16.0.0, SVG Export Plug-In . SVG Version: 6.00 Build 0)  -->
<!DOCTYPE svg PUBLIC "-//W3C//DTD SVG 1.1//EN" "http://www.w3.org/Graphics/SVG/1.1/DTD/svg11.dtd">
<svg version="1.1" id="Ebene_1" xmlns="http://www.w3.org/2000/svg" xmlns:xlink="http://www.w3.org/1999/xlink" x="0px" y="0px"
	 width="608.357px" height="176.621px" viewBox="0 0 608.357 176.621" enable-background="new 0 0 608.357 176.621"
	 xml:space="preserve">
<path fill="#FFFFFF" d="M0,175.25h10.105V46.796H0V175.25z M19.697,175.25h10.105V46.796H19.697V175.25z"/>
<g>
	<defs>
		<rect id="SVGID_1_" width="608.356" height="176.621"/>
	</defs>
	<clipPath id="SVGID_2_">
		<use xlink:href="#SVGID_1_"  overflow="visible"/>
	</clipPath>
	<path clip-path="url(#SVGID_2_)" fill="#FFFFFF" d="M89.836,79.682c-1.967,0-3.586-0.628-4.856-1.886
		c-1.275-1.254-1.909-2.853-1.909-4.794c0-1.94,0.634-3.538,1.909-4.796c1.27-1.257,2.889-1.885,4.856-1.885
		c1.964,0,3.584,0.628,4.858,1.885c1.271,1.258,1.907,2.855,1.907,4.796c0,1.941-0.636,3.54-1.907,4.794
		C93.42,79.054,91.8,79.682,89.836,79.682 M62.861,132.089l24.374-22.266c-4.799-0.227-9.254-1.283-13.367-3.168
		c-4.113-1.885-7.713-4.424-10.796-7.621L62.861,132.089z M110.475,101.947l59.431,73.475h-13.359l-53.437-66.795l-40.249,37.166
		v29.459H52.756V46.625h10.105v27.664c0,3.438,0.655,6.703,1.97,9.796c1.311,3.094,3.109,5.813,5.395,8.161
		c2.282,2.35,4.966,4.182,8.05,5.498c3.083,1.318,6.393,1.977,9.933,1.977c6.051,0,11.476-1.945,16.271-5.844l51.04-47.251h15.071
		l-58.917,54.123L110.475,101.947z"/>
</g>
<path fill="#FFFFFF" d="M226.578,112.394l-27.061-54.123l-26.89,54.123H226.578z M239.766,138.597l-8.05-16.098h-64.227
	l-8.05,16.098H239.766z M129.809,175.251l64.056-128.456h11.304l64.399,128.456h-11.304l-13.359-26.547h-90.433l-13.359,26.547
	H129.809z"/>
<g>
	<defs>
		<rect id="SVGID_3_" width="608.356" height="176.621"/>
	</defs>
	<clipPath id="SVGID_4_">
		<use xlink:href="#SVGID_3_"  overflow="visible"/>
	</clipPath>
	<path clip-path="url(#SVGID_4_)" fill="#FFFFFF" d="M289.953,56.901v82.383h49.421h1.887c1.142,0,2.515-0.174,4.117-0.516
		c5.032-0.684,9.725-2.227,14.069-4.625c4.347-2.396,8.123-5.393,11.326-8.992c3.204-3.596,5.722-7.705,7.552-12.33
		c1.831-4.625,2.746-9.563,2.746-14.816c0-5.592-1.09-10.901-3.264-15.926c-2.172-5.023-5.148-9.392-8.922-13.104
		c-3.775-3.709-8.181-6.65-13.212-8.821c-5.033-2.166-10.41-3.253-16.129-3.253H289.953z M379.682,175.251l-22.304-28.945
		c-3.775,1.484-7.32,2.398-10.637,2.74c-1.146,0.115-2.318,0.201-3.516,0.258c-1.203,0.057-2.435,0.086-3.692,0.086h-49.58v25.861
		h-10.104V46.796h59.773c7.194,0,13.899,1.344,20.125,4.024c6.222,2.685,11.673,6.339,16.357,10.964
		c4.679,4.621,8.362,10.047,11.047,16.269c2.681,6.226,4.023,12.876,4.023,19.953c0,9.25-2.23,17.729-6.689,25.436
		c-4.461,7.707-10.411,13.846-17.844,18.412l26.074,33.398H379.682z"/>
	<path clip-path="url(#SVGID_4_)" fill="#FFFFFF" d="M459.175,126.267c1.94,0,3.538,0.658,4.796,1.971
		c1.255,1.313,1.884,2.883,1.884,4.709c0,1.941-0.629,3.596-1.884,4.967c-1.258,1.371-2.855,2.055-4.796,2.055
		c-1.944,0-3.57-0.684-4.881-2.055c-1.315-1.371-1.971-3.025-1.971-4.967c0-1.826,0.655-3.396,1.971-4.709
		C455.604,126.925,457.23,126.267,459.175,126.267 M459.089,166.515c4.921,0,9.526-0.941,13.818-2.83
		c4.294-1.889,8.04-4.436,11.246-7.643c3.207-3.205,5.75-6.953,7.642-11.246c1.889-4.293,2.833-8.842,2.833-13.652V97.322h-70.906
		v33.822c0,4.811,0.915,9.359,2.746,13.652c1.829,4.293,4.348,8.041,7.554,11.246c3.206,3.207,6.952,5.754,11.245,7.643
		C449.559,165.574,454.165,166.515,459.089,166.515 M504.733,46.796v84.266c0,6.281-1.2,12.189-3.598,17.729
		c-2.398,5.539-5.651,10.359-9.761,14.471c-4.112,4.111-8.938,7.365-14.474,9.762c-5.54,2.398-11.449,3.598-17.727,3.598
		c-6.282,0-12.19-1.199-17.727-3.598c-5.54-2.396-10.362-5.65-14.474-9.762c-4.11-4.111-7.365-8.932-9.761-14.471
		c-2.398-5.539-3.599-11.447-3.599-17.729V46.796h10.106v40.42h70.906v-40.42H504.733z"/>
	<path clip-path="url(#SVGID_4_)" fill="#FFFFFF" d="M570.333,176.107c-2.97,0-5.823-0.17-8.563-0.514
		c-6.397-0.686-11.819-2.426-16.271-5.225c-4.454-2.795-8.081-5.707-10.876-8.734c-2.799-3.023-4.854-5.793-6.165-8.307
		c-1.314-2.512-2.029-3.881-2.141-4.109l9.418-4.113c0.113,0.232,0.686,1.316,1.714,3.256c1.027,1.941,2.624,4.109,4.796,6.508
		c2.167,2.398,4.938,4.654,8.308,6.766c3.365,2.113,7.448,3.455,12.243,4.025c4.112,0.457,8.277,0.342,12.505-0.344
		c4.224-0.684,8.02-1.939,11.39-3.768c3.366-1.824,6.136-4.252,8.306-7.279c2.169-3.023,3.255-6.65,3.255-10.875
		c0-5.021-1.198-9.104-3.597-12.246c-2.399-3.139-5.425-5.738-9.078-7.793c-3.656-2.055-7.566-3.795-11.732-5.225
		c-4.168-1.426-7.964-2.938-11.389-4.539c-7.082-2.967-12.846-5.908-17.299-8.82c-4.453-2.91-7.878-5.908-10.276-8.992
		c-2.397-3.082-3.999-6.25-4.796-9.504c-0.8-3.255-1.087-6.706-0.856-10.362c0.112-3.881,1.058-7.678,2.832-11.39
		c1.771-3.71,4.318-7.022,7.638-9.933c3.318-2.912,7.469-5.226,12.447-6.938c4.977-1.712,10.784-2.511,17.421-2.397
		c5.606,0.229,10.584,1.344,14.933,3.339c4.348,2,8.006,4.398,10.98,7.194c2.974,2.799,5.344,5.737,7.116,8.819
		c1.77,3.084,2.997,5.769,3.682,8.052l-9.591,2.91l4.701-1.541l-4.813,1.541c-0.116-0.227-0.632-1.369-1.547-3.425
		c-0.916-2.055-2.405-4.309-4.469-6.765c-2.064-2.455-4.843-4.682-8.337-6.68c-3.495-1.997-7.879-3.109-13.15-3.342
		c-5.615-0.11-10.313,0.544-14.095,1.973c-3.784,1.427-6.822,3.253-9.113,5.479c-2.29,2.228-3.922,4.568-4.897,7.023
		c-0.974,2.456-1.521,4.652-1.632,6.594c-0.114,1.827-0.086,3.767,0.086,5.822c0.171,2.057,1.117,4.227,2.838,6.51
		c1.722,2.285,4.446,4.738,8.177,7.363c3.731,2.627,9.093,5.369,16.095,8.223c4.935,2.055,9.897,4.053,14.89,5.994
		c4.991,1.941,9.494,4.281,13.512,7.021c4.015,2.74,7.258,6.166,9.726,10.275c2.467,4.111,3.7,9.42,3.7,15.928
		c0,5.254-1.134,9.879-3.398,13.875c-2.265,3.998-5.206,7.365-8.82,10.104c-3.615,2.742-7.678,4.826-12.188,6.254
		C579.438,175.224,574.899,175.99,570.333,176.107"/>
	<path clip-path="url(#SVGID_4_)" fill="#FFFFFF" d="M205.153,21.613c-1.274,1.258-2.893,1.885-4.858,1.885
		c-1.967,0-3.586-0.627-4.857-1.885c-1.274-1.255-1.908-2.852-1.908-4.794c0-1.941,0.634-3.538,1.908-4.796
		c1.271-1.257,2.89-1.884,4.857-1.884c1.965,0,3.584,0.627,4.858,1.884c1.271,1.258,1.908,2.854,1.908,4.796
		C207.061,18.762,206.424,20.358,205.153,21.613 M200.177,0c-9.236,0-16.723,7.487-16.723,16.724
		c0,9.235,7.487,16.723,16.723,16.723c9.236,0,16.723-7.487,16.723-16.723C216.9,7.487,209.413,0,200.177,0"/>
</g>
</svg>
