<?xml version="1.0" encoding="utf-8"?>
<!-- Generator: Adobe Illustrator 26.0.1, SVG Export Plug-In . SVG Version: 6.00 Build 0)  -->
<svg version="1.1" id="Ebene_1" xmlns="http://www.w3.org/2000/svg" xmlns:xlink="http://www.w3.org/1999/xlink" x="0px" y="0px"
	 viewBox="0 0 321.55 187.48" style="enable-background:new 0 0 321.55 187.48;" xml:space="preserve">
<style type="text/css">
	.st0{fill:#28235A;}
	.st1{fill:#14AF9B;}
</style>
<g>
	<g>
		<g>
			<path class="st0" d="M321.23,139.45l-20.6-63.99c-0.89-2.77-3.47-4.64-6.38-4.64c0,0-1.97-0.03-5.55-0.09l-17.88-21.14
				c5.71-5.17,9.14-12.59,9.14-20.5c0-15.28-12.45-27.72-27.76-27.72H75.86c-3.35,0-6.1,2.46-6.6,5.67C64.26,2.67,57.74,0,50.59,0
				c-15.93,0-28.4,12.58-28.4,28.63c0,5.37,1.54,11.45,5.22,16.6c-2.99,0.67-5.22,3.34-5.22,6.53c0,7.33,2.82,14.02,7.42,19.06
				c-0.07,0-0.13-0.01-0.2-0.01H6.7c-3.7,0-6.7,3-6.7,6.69v63.99c0,3.7,3,6.69,6.7,6.69H58.1V180c0,3.73,3.02,6.75,6.75,6.75h44.19
				c1.88,0,3.58-0.77,4.81-2.01c2.73,1.73,5.96,2.75,9.42,2.75c5.08,0,9.58-2.11,12.76-5.52c0.84,2.77,3.41,4.79,6.46,4.79h108.61
				c3.73,0,6.75-3.02,6.75-6.75v-9.97c0-3.73-3.02-6.75-6.75-6.75h-2.99v-15.09h66.75c2.14,0,4.15-1.02,5.42-2.75
				C321.52,143.71,321.88,141.49,321.23,139.45z M36.23,71.7l0.08,0c0.01,0.01,0.01,0.01,0.01,0.02
				C36.29,71.71,36.26,71.71,36.23,71.7z"/>
			<polygon class="st1" points="73.66,121.44 93.17,121.44 93.17,141.37 53.7,141.37 53.7,77.38 73.66,77.38 			"/>
			<path class="st1" d="M126.95,122.81c7.42,0,13.46-6.03,13.46-13.44c0-7.4-6.04-13.44-13.46-13.44c-7.42,0-13.46,6.03-13.46,13.44
				C113.49,116.78,119.53,122.81,126.95,122.81 M126.95,76c18.4,0,33.42,14.99,33.42,33.37c0,18.38-15.02,33.37-33.42,33.37
				c-18.4,0-33.42-14.99-33.42-33.37C93.53,91,108.54,76,126.95,76"/>
			<path class="st1" d="M196.41,122.81c7.42,0,13.46-6.03,13.46-13.44c0-7.4-6.04-13.44-13.46-13.44c-7.42,0-13.46,6.03-13.46,13.44
				C182.96,116.78,189,122.81,196.41,122.81 M196.41,76c18.4,0,33.42,14.99,33.42,33.37c0,18.38-15.02,33.37-33.42,33.37
				S163,127.75,163,109.37C163,91,178.01,76,196.41,76"/>
			<polygon class="st1" points="246.49,77.38 262.6,77.38 270.84,102.97 279.08,77.38 294.1,77.38 314.7,141.37 293.64,141.37 
				286.59,119.52 279.54,141.37 262.15,141.37 254.55,117.78 246.95,141.37 225.89,141.37 			"/>
			<path class="st1" d="M50.32,98.4c0-11.61-9.43-21.03-21.06-21.03H6.56v63.99h22.71c11.63,0,21.06-9.32,21.06-20.93
				c0-4.02-1.19-7.77-3.2-11.06C49.13,106.17,50.32,102.42,50.32,98.4z M28.43,124.04h-4.21v-5.16h4.21
				C31.01,119.63,31.01,123.28,28.43,124.04z M28.43,99.87h-4.21v-5.16h4.21C31.01,95.46,31.01,99.11,28.43,99.87z"/>
			<path class="st1" d="M110.59,7.5h19.96v38.03c0,15.18-12.27,27.33-27.47,27.33S75.71,60.71,75.71,45.53V7.5h19.96v38.03
				c0,4.11,3.3,7.41,7.42,7.41c4.12,0,7.51-3.29,7.51-7.41C110.59,45.53,110.59,7.5,110.59,7.5z"/>
			<polygon class="st1" points="203.51,26.77 203.51,29.91 223.84,29.91 223.84,48.53 203.51,48.53 203.51,52.22 223.84,52.22 
				223.84,71.49 183.56,71.49 183.56,7.5 223.84,7.5 223.84,26.77 			"/>
			<path class="st1" d="M260.75,47.63c7.23-3.29,12.36-10.6,12.36-19.11c0-11.61-9.43-21.03-21.06-21.03h-23.71v63.99h19.96v-7.4
				l6.22,7.4h26.28L260.75,47.63z M251.87,31.07h-4.21v-5.16h4.21C254.45,26.66,254.45,30.31,251.87,31.07z"/>
			<path class="st1" d="M159.39,7.5h-23.9v63.99h19.96V49.46h3.94c11.63,0,21.06-9.32,21.06-20.93S171.02,7.5,159.39,7.5z
				 M158.99,31.07h-4.21v-5.16h4.21C161.57,26.66,161.57,30.31,158.99,31.07z"/>
			<path class="st1" d="M54.11,30.08c0,0-2.39-0.49-3.19-0.63c-1.58-0.28-2.8-0.85-2.8-2.19c0-0.43,0.14-0.81,0.37-1.13
				c1.16-1.84,4.14-1.61,4.85,0.71c0.12,0.39,0.15,0.7,0.2,0.96h18.62c0-11.97-9.71-21.66-21.7-21.66c-11.99,0-21.7,9.51-21.7,21.94
				c0,9.14,5.22,18.92,18.68,21.21c0,0,3.24,0.58,3.5,0.66c1.1,0.35,1.89,0.92,1.89,1.99c0,0.15-0.06,0.52-0.22,0.89
				c-0.97,2.14-4.19,1.95-5-0.45c-0.13-0.39-0.2-0.87-0.23-1.17H28.75c0,11.98,9.7,21.67,21.79,21.67c11.9,0,21.61-9.42,21.61-22.3
				C72.14,41.23,67.02,32.73,54.11,30.08z"/>
		</g>
	</g>
	<g>
		<g>
			<path class="st1" d="M85.48,147.98v9.97H74.82v1.83h10.66v9.97H74.82V180h-9.97v-32.02H85.48z"/>
		</g>
		<g>
			<path class="st1" d="M109.04,157.68H99.02v1.6h10.02v9.19H99.02v1.88h10.02V180H89.09v-32.02h19.95V157.68z"/>
		</g>
		<g>
			<path class="st1" d="M134.06,169.57c0,6.45-4.8,11.16-10.8,11.16c-6.08,0-10.89-4.8-10.89-10.84h9.29c0,0.18,0.09,0.37,0.14,0.59
				c0.37,1.24,2.01,1.28,2.52,0.23c0.05-0.23,0.09-0.37,0.09-0.46c0-0.55-0.37-0.78-0.96-0.96c-0.14-0.05-1.78-0.37-1.78-0.37
				c-6.72-1.1-9.29-6.04-9.29-10.66c0-6.18,4.8-10.93,10.84-10.93c6.04,0,10.84,4.8,10.84,10.84h-9.33c0-0.18-0.05-0.27-0.09-0.5
				c-0.32-1.14-1.78-1.24-2.42-0.32c-0.09,0.09-0.14,0.32-0.14,0.55c0,0.64,0.59,0.92,1.37,1.1c0.41,0.05,1.56,0.32,1.56,0.32
				C131.5,160.65,134.06,164.9,134.06,169.57z"/>
		</g>
		<g>
			<path class="st1" d="M158.86,157.95h-6.4V180h-9.97v-22.05h-6.4v-9.97h22.78V157.95z"/>
		</g>
		<g>
			<path class="st1" d="M171.76,180h-9.97v-32.02h9.97V180z"/>
		</g>
		<g>
			<path class="st1" d="M183.98,147.98l5.31,14.55l5.31-14.55h10.52L193.45,180h-8.33l-11.67-32.02H183.98z"/>
		</g>
		<g>
			<path class="st1" d="M209.37,177.03l-1.05,2.97h-10.52l11.67-32.02h8.33L229.45,180h-10.52l-1.05-2.97H209.37z M212.07,169.11
				h3.02l-1.46-3.93L212.07,169.11z"/>
		</g>
		<g>
			<path class="st1" d="M251.09,170.03V180h-19.72v-32.02h9.97v22.05H251.09z"/>
		</g>
	</g>
</g>
</svg>
